<?xml version="1.0" encoding="UTF-8" standalone="no"?>
<svg width="60px" height="60px" viewBox="0 0 60 60" version="1.1" xmlns="http://www.w3.org/2000/svg" xmlns:xlink="http://www.w3.org/1999/xlink">
    <!-- Generator: Sketch 42 (36781) - http://www.bohemiancoding.com/sketch -->
    <title>icon-mood-0</title>
    <desc>Created with Sketch.</desc>
    <defs></defs>
    <g id="symbols" stroke="none" stroke-width="1" fill="none" fill-rule="evenodd">
        <g id="icon-mood-0" fill-rule="nonzero" fill="#000000">
            <path d="M20.4379028,19.9639265 L17.952852,17.4788756 C17.4537772,16.9798008 16.6446171,16.9798008 16.1455423,17.4788756 C15.6464675,17.9779504 15.6464675,18.7871105 16.1455423,19.2861853 L18.6305931,21.7712362 L16.1455423,24.256287 C15.6464675,24.7553618 15.6464675,25.5645219 16.1455423,26.0635967 C16.6446171,26.5626715 17.4537772,26.5626715 17.952852,26.0635967 L20.4379028,23.5785459 L22.9229537,26.0635967 C23.4220285,26.5626715 24.2311886,26.5626715 24.7302634,26.0635967 C25.2293382,25.5645219 25.2293382,24.7553618 24.7302634,24.256287 L22.2452125,21.7712362 L24.7302634,19.2861853 C25.2293382,18.7871105 25.2293382,17.9779504 24.7302634,17.4788756 C24.2311886,16.9798008 23.4220285,16.9798008 22.9229537,17.4788756 L20.4379028,19.9639265 Z M39.7712362,19.9639265 L37.2861853,17.4788756 C36.7871105,16.9798008 35.9779504,16.9798008 35.4788756,17.4788756 C34.9798008,17.9779504 34.9798008,18.7871105 35.4788756,19.2861853 L37.9639265,21.7712362 L35.4788756,24.256287 C34.9798008,24.7553618 34.9798008,25.5645219 35.4788756,26.0635967 C35.9779504,26.5626715 36.7871105,26.5626715 37.2861853,26.0635967 L39.7712362,23.5785459 L42.256287,26.0635967 C42.7553618,26.5626715 43.5645219,26.5626715 44.0635967,26.0635967 C44.5626715,25.5645219 44.5626715,24.7553618 44.0635967,24.256287 L41.5785459,21.7712362 L44.0635967,19.2861853 C44.5626715,18.7871105 44.5626715,17.9779504 44.0635967,17.4788756 C43.5645219,16.9798008 42.7553618,16.9798008 42.256287,17.4788756 L39.7712362,19.9639265 Z M15.1925696,41.2629515 C14.8632506,41.9215895 14.0623532,42.1885553 13.4037152,41.8592363 C12.7450772,41.5299173 12.4781114,40.7290199 12.8074304,40.0703819 C13.1081836,39.4688755 13.6501392,38.6205972 14.4337945,37.7657005 C15.8086258,36.2658845 17.4405904,35.3333333 19.3333333,35.3333333 C21.273758,35.3333333 22.417814,36.2069761 23.9650911,38.1762379 C23.981279,38.1968407 24.270071,38.5661157 24.3515169,38.6689947 C25.1506215,39.6783901 25.5648162,40 26,40 C26.5554769,40 27.090459,39.567899 28.3209912,38.1322782 C30.090459,36.067899 30.9999213,35.3333333 32.6666667,35.3333333 C34.0700776,35.3333333 35.081774,35.9998627 36.4055172,37.3897931 C36.5058414,37.4951335 36.6082037,37.6044664 36.7381779,37.7446564 C36.7767752,37.7862875 36.9973158,38.0248044 37.0603913,38.0927319 C38.3724217,39.5056876 39.0903516,40 40,40 C40.9674101,40 41.9499501,39.3449734 42.8682422,38.1762379 C43.2201853,37.7283103 43.532888,37.2418839 43.7992883,36.7554138 C43.9570887,36.4672567 44.0612656,36.2500367 44.1078066,36.1414409 C44.3978808,35.4646012 45.1817194,35.1510658 45.8585591,35.44114 C46.5353988,35.7312141 46.8489342,36.5150527 46.55886,37.1918924 C46.2670062,37.8728846 45.7358967,38.8427367 44.9650911,39.8237621 C43.5917166,41.5716933 41.9492565,42.6666667 40,42.6666667 C38.1040929,42.6666667 36.8965177,41.8352215 35.1062753,39.9072681 C35.0408281,39.8367865 34.8193269,39.5972306 34.7826554,39.5576769 C34.6600951,39.4254833 34.5652278,39.3241558 34.4744828,39.2288736 C33.6199804,38.3316461 33.116589,38 32.6666667,38 C32.1111898,38 31.5762076,38.432101 30.3456755,39.8677218 C28.5762076,41.932101 27.6667453,42.6666667 26,42.6666667 C24.4778555,42.6666667 23.5365572,41.9357762 22.260728,40.3242026 C22.1734286,40.2139297 21.8801156,39.8388736 21.8682422,39.8237621 C20.7905194,38.4521148 20.1984643,38 19.3333333,38 C18.3094096,38 17.3163742,38.5674488 16.3995389,39.5676328 C16.0545709,39.9439615 15.748513,40.3520388 15.4881783,40.759519 C15.3351658,40.9990169 15.2352537,41.1775833 15.1925696,41.2629515 Z" id="Combined-Shape"></path>
            <path d="M30,56.6666667 C44.7275933,56.6666667 56.6666667,44.7275933 56.6666667,30 C56.6666667,15.2724067 44.7275933,3.33333333 30,3.33333333 C15.2724067,3.33333333 3.33333333,15.2724067 3.33333333,30 C3.33333333,44.7275933 15.2724067,56.6666667 30,56.6666667 Z M30,60 C13.4314575,60 0,46.5685425 0,30 C0,13.4314575 13.4314575,0 30,0 C46.5685425,0 60,13.4314575 60,30 C60,46.5685425 46.5685425,60 30,60 Z" id="Oval-2-Copy-4"></path>
        </g>
    </g>
</svg>