<?xml version="1.0" encoding="UTF-8" standalone="no"?>
<svg width="16px" height="16px" viewBox="0 0 16 16" version="1.1" xmlns="http://www.w3.org/2000/svg" xmlns:xlink="http://www.w3.org/1999/xlink">
    <!-- Generator: Sketch 42 (36781) - http://www.bohemiancoding.com/sketch -->
    <title>icon-undone</title>
    <desc>Created with Sketch.</desc>
    <defs></defs>
    <g id="symbols" stroke="none" stroke-width="1" fill="none" fill-rule="evenodd">
        <g id="icon-undone" fill-rule="nonzero" fill="#999999">
            <path d="M1.2,8 C1.2,11.7498593 4.24777482,14.8 8,14.8 C11.7498593,14.8 14.8,11.7522252 14.8,8 C14.8,4.25014066 11.7522252,1.2 8,1.2 C4.25014066,1.2 1.2,4.24777482 1.2,8 Z M0,8 C0,3.581722 3.59071231,0 8,0 C12.418278,0 16,3.59071231 16,8 C16,12.418278 12.4092877,16 8,16 C3.581722,16 0,12.4092877 0,8 Z" id="Rectangle-10-Copy-3"></path>
            <path d="M8.84852814,8 L10.8242641,6.02426407 C11.0585786,5.78994949 11.0585786,5.41005051 10.8242641,5.17573593 C10.5899495,4.94142136 10.2100505,4.94142136 9.97573593,5.17573593 L8,7.15147186 L6.02426407,5.17573593 C5.78994949,4.94142136 5.41005051,4.94142136 5.17573593,5.17573593 C4.94142136,5.41005051 4.94142136,5.78994949 5.17573593,6.02426407 L7.15147186,8 L5.17573593,9.97573593 C4.94142136,10.2100505 4.94142136,10.5899495 5.17573593,10.8242641 C5.41005051,11.0585786 5.78994949,11.0585786 6.02426407,10.8242641 L8,8.84852814 L9.97573593,10.8242641 C10.2100505,11.0585786 10.5899495,11.0585786 10.8242641,10.8242641 C11.0585786,10.5899495 11.0585786,10.2100505 10.8242641,9.97573593 L8.84852814,8 Z" id="Combined-Shape"></path>
        </g>
    </g>
</svg>