<?xml version="1.0" encoding="UTF-8" standalone="no"?>
<svg width="60px" height="60px" viewBox="0 0 60 60" version="1.1" xmlns="http://www.w3.org/2000/svg" xmlns:xlink="http://www.w3.org/1999/xlink">
    <!-- Generator: Sketch 42 (36781) - http://www.bohemiancoding.com/sketch -->
    <title>icon-mood-4</title>
    <desc>Created with Sketch.</desc>
    <defs></defs>
    <g id="symbols" stroke="none" stroke-width="1" fill="none" fill-rule="evenodd">
        <g id="icon-mood-4" fill-rule="nonzero" fill="#000000">
            <path d="M39.6666676,18.6666667 C41.3047682,18.6666667 42.6666667,20.0285397 42.6666667,21.6666679 C42.6666667,23.3047924 41.3047682,24.6666667 39.6666676,24.6666667 C38.0285677,24.6666667 36.6666667,23.3047924 36.6666667,21.6666679 C36.6666667,20.0285397 38.0285677,18.6666667 39.6666676,18.6666667 Z M20.3333343,18.6666667 C21.9714349,18.6666667 23.3333333,20.0285397 23.3333333,21.6666679 C23.3333333,23.3047924 21.9714349,24.6666667 20.3333343,24.6666667 C18.6952343,24.6666667 17.3333333,23.3047924 17.3333333,21.6666679 C17.3333333,20.0285397 18.6952343,18.6666667 20.3333343,18.6666667 Z M23.3160589,44.1865358 C22.4766583,43.8088056 22.1024006,42.8221261 22.4801308,41.9827255 C22.8578611,41.143325 23.8445406,40.7690672 24.6839411,41.1467975 C24.732437,41.1686206 24.8575089,41.2198113 25.0524028,41.2909934 C25.3960911,41.4165204 25.7966856,41.5436708 26.2473373,41.6632247 C29.9847319,42.6547222 34.0211272,42.4578891 37.7941224,40.2639623 C40.325562,38.791977 42.6052972,36.4687452 44.5651225,33.1521178 C45.0333949,32.3596568 46.0554212,32.0968501 46.8478822,32.5651225 C47.6403432,33.0333949 47.9031499,34.0554212 47.4348775,34.8478822 C45.1921423,38.6432804 42.5075427,41.3791012 39.4697094,43.1455451 C34.8284898,45.8443283 29.9120438,46.0840767 25.3926002,44.8851086 C24.4406182,44.6325562 23.7324096,44.3738937 23.3160589,44.1865358 Z" id="Combined-Shape"></path>
            <path d="M30,56.6666667 C44.7275933,56.6666667 56.6666667,44.7275933 56.6666667,30 C56.6666667,15.2724067 44.7275933,3.33333333 30,3.33333333 C15.2724067,3.33333333 3.33333333,15.2724067 3.33333333,30 C3.33333333,44.7275933 15.2724067,56.6666667 30,56.6666667 Z M30,60 C13.4314575,60 0,46.5685425 0,30 C0,13.4314575 13.4314575,0 30,0 C46.5685425,0 60,13.4314575 60,30 C60,46.5685425 46.5685425,60 30,60 Z" id="Oval-2-Copy-2"></path>
        </g>
    </g>
</svg>