<svg class="icon-mood-good" xmlns="http://www.w3.org/2000/svg" width="60" height="60" viewBox="0 0 60 60">
    <g fill="none"><path d="M39.7 18.7C41.3 18.7 42.7 20 42.7 21.7 42.7 23.3 41.3 24.7 39.7 24.7 38 24.7 36.7 23.3 36.7 21.7 36.7 20 38 18.7 39.7 18.7ZM20.3 18.7C22 18.7 23.3 20 23.3 21.7 23.3 23.3 22 24.7 20.3 24.7 18.7 24.7 17.3 23.3 17.3 21.7 17.3 20 18.7 18.7 20.3 18.7ZM23.3 44.2C22.5 43.8 22.1 42.8 22.5 42 22.9 41.1 23.8 40.8 24.7 41.1 24.7 41.2 24.9 41.2 25.1 41.3 25.4 41.4 25.8 41.5 26.2 41.7 30 42.7 34 42.5 37.8 40.3 40.3 38.8 42.6 36.5 44.6 33.2 45 32.4 46.1 32.1 46.8 32.6 47.6 33 47.9 34.1 47.4 34.8 45.2 38.6 42.5 41.4 39.5 43.1 34.8 45.8 29.9 46.1 25.4 44.9 24.4 44.6 23.7 44.4 23.3 44.2Z"/><path d="M30 56.7C44.7 56.7 56.7 44.7 56.7 30 56.7 15.3 44.7 3.3 30 3.3 15.3 3.3 3.3 15.3 3.3 30 3.3 44.7 15.3 56.7 30 56.7ZM30 60C13.4 60 0 46.6 0 30 0 13.4 13.4 0 30 0 46.6 0 60 13.4 60 30 60 46.6 46.6 60 30 60Z"/></g>
</svg>
