<svg class="icon-mood-good" xmlns="http://www.w3.org/2000/svg" width="60" height="60" viewBox="0 0 60 60">
    <g fill="none"><path d="M23.4 25.1C22.7 25.1 22.1 24.5 22.1 23.8 22.1 21.8 20.2 20.1 17.9 20.1 15.6 20.1 13.8 21.8 13.8 23.8 13.8 24.5 13.1 25.1 12.4 25.1 11.7 25.1 11.1 24.5 11.1 23.8 11.1 20.3 14.2 17.5 17.9 17.5 21.6 17.5 24.7 20.4 24.7 23.8 24.7 24.6 24.2 25.1 23.4 25.1ZM47.6 25.1C46.9 25.1 46.2 24.5 46.2 23.8 46.2 21.8 44.4 20.1 42.1 20.1 39.8 20.1 37.9 21.8 37.9 23.8 37.9 24.5 37.3 25.1 36.6 25.1 35.9 25.1 35.3 24.6 35.3 23.8 35.3 20.3 38.4 17.5 42.1 17.5 45.8 17.5 48.9 20.3 48.9 23.8 48.9 24.6 48.3 25.1 47.6 25.1ZM45.4 34.1C45.4 42.6 38.6 49.5 30 49.5 21.4 49.5 14.6 42.6 14.6 34.1L45.4 34.1 45.4 34.1Z"/><path d="M30 56.7C44.7 56.7 56.7 44.7 56.7 30 56.7 15.3 44.7 3.3 30 3.3 15.3 3.3 3.3 15.3 3.3 30 3.3 44.7 15.3 56.7 30 56.7ZM30 60C13.4 60 0 46.6 0 30 0 13.4 13.4 0 30 0 46.6 0 60 13.4 60 30 60 46.6 46.6 60 30 60Z"/></g>
</svg>
