<?xml version="1.0" encoding="UTF-8" standalone="no"?>
<svg width="60px" height="60px" viewBox="0 0 60 60" version="1.1" xmlns="http://www.w3.org/2000/svg" xmlns:xlink="http://www.w3.org/1999/xlink">
    <!-- Generator: Sketch 42 (36781) - http://www.bohemiancoding.com/sketch -->
    <title>icon-mood-5</title>
    <desc>Created with Sketch.</desc>
    <defs></defs>
    <g id="symbols" stroke="none" stroke-width="1" fill="none" fill-rule="evenodd">
        <g id="icon-mood-5" fill-rule="nonzero" fill="#000000">
            <path d="M23.3823529,25.1470588 C22.6764706,25.1470588 22.0588235,24.5294118 22.0588235,23.8235294 C22.0588235,21.7941176 20.2058824,20.1176471 17.9117647,20.1176471 C15.6176471,20.1176471 13.7647059,21.7941176 13.7647059,23.8235294 C13.7647059,24.5294118 13.1470588,25.1470588 12.4411765,25.1470588 C11.7352941,25.1470588 11.1176471,24.5294118 11.1176471,23.8235294 C11.1176471,20.2941176 14.2058824,17.4705882 17.9117647,17.4705882 C21.6176471,17.4705882 24.7058824,20.3823529 24.7058824,23.8235294 C24.7058824,24.6176471 24.1764706,25.1470588 23.3823529,25.1470588 Z M47.5588235,25.1470588 C46.8529412,25.1470588 46.2352941,24.5294118 46.2352941,23.8235294 C46.2352941,21.7941176 44.3823529,20.1176471 42.0882353,20.1176471 C39.7941176,20.1176471 37.9411765,21.7941176 37.9411765,23.8235294 C37.9411765,24.5294118 37.3235294,25.1470588 36.6176471,25.1470588 C35.9117647,25.1470588 35.2941176,24.6176471 35.2941176,23.8235294 C35.2941176,20.2941176 38.3823529,17.4705882 42.0882353,17.4705882 C45.7941176,17.4705882 48.8823529,20.2941176 48.8823529,23.8235294 C48.8823529,24.6176471 48.2647059,25.1470588 47.5588235,25.1470588 Z M45.4411765,34.0588235 C45.4411765,42.6176471 38.5588235,49.5 30,49.5 C21.4411765,49.5 14.5588235,42.6176471 14.5588235,34.0588235 L45.4411765,34.0588235 L45.4411765,34.0588235 Z" id="Combined-Shape"></path>
            <path d="M30,56.6666667 C44.7275933,56.6666667 56.6666667,44.7275933 56.6666667,30 C56.6666667,15.2724067 44.7275933,3.33333333 30,3.33333333 C15.2724067,3.33333333 3.33333333,15.2724067 3.33333333,30 C3.33333333,44.7275933 15.2724067,56.6666667 30,56.6666667 Z M30,60 C13.4314575,60 0,46.5685425 0,30 C0,13.4314575 13.4314575,0 30,0 C46.5685425,0 60,13.4314575 60,30 C60,46.5685425 46.5685425,60 30,60 Z" id="Oval-2-Copy-3"></path>
        </g>
    </g>
</svg>