<svg class="icon-mood-bad" xmlns="http://www.w3.org/2000/svg" width="60" height="60" viewBox="0 0 60 60">
<path d="M39.7 18.7C41.3 18.7 42.7 20 42.7 21.7 42.7 23.3 41.3 24.7 39.7 24.7 38 24.7 36.7 23.3 36.7 21.7 36.7 20 38 18.7 39.7 18.7ZM20.3 18.7C22 18.7 23.3 20 23.3 21.7 23.3 23.3 22 24.7 20.3 24.7 18.7 24.7 17.3 23.3 17.3 21.7 17.3 20 18.7 18.7 20.3 18.7ZM18.6 41.7C18.1 42.4 17 42.5 16.3 42 15.6 41.4 15.5 40.3 16 39.6 16.5 39.1 17.2 38.3 18.3 37.6 20.1 36.4 22.3 35.7 24.7 35.7 26.3 35.7 27.8 36.2 29.7 37.2 30.1 37.4 30.1 37.4 31.1 38 33.6 39.3 34.8 39.8 36.4 39.8 38.4 39.8 40.7 38.7 43.5 36.1 44.2 35.5 45.3 35.5 45.9 36.2 46.5 36.9 46.5 37.9 45.8 38.6 39.7 44.3 35.6 44.3 29.5 40.9 28.5 40.3 28.5 40.3 28.1 40.1 26.7 39.3 25.7 39 24.7 39 23 39 21.5 39.5 20.2 40.4 19.7 40.7 19.3 41 19 41.3 18.8 41.5 18.7 41.7 18.6 41.7Z"/><path d="M30 56.7C44.7 56.7 56.7 44.7 56.7 30 56.7 15.3 44.7 3.3 30 3.3 15.3 3.3 3.3 15.3 3.3 30 3.3 44.7 15.3 56.7 30 56.7ZM30 60C13.4 60 0 46.6 0 30 0 13.4 13.4 0 30 0 46.6 0 60 13.4 60 30 60 46.6 46.6 60 30 60Z"/></g>
</svg>
