<svg class="icon-mood-bad" xmlns="http://www.w3.org/2000/svg" width="60" height="60" viewBox="0 0 60 60">
    <path d="M20.4 20L18 17.5C17.5 17 16.6 17 16.1 17.5 15.6 18 15.6 18.8 16.1 19.3L18.6 21.8 16.1 24.3C15.6 24.8 15.6 25.6 16.1 26.1 16.6 26.6 17.5 26.6 18 26.1L20.4 23.6 22.9 26.1C23.4 26.6 24.2 26.6 24.7 26.1 25.2 25.6 25.2 24.8 24.7 24.3L22.2 21.8 24.7 19.3C25.2 18.8 25.2 18 24.7 17.5 24.2 17 23.4 17 22.9 17.5L20.4 20ZM39.8 20L37.3 17.5C36.8 17 36 17 35.5 17.5 35 18 35 18.8 35.5 19.3L38 21.8 35.5 24.3C35 24.8 35 25.6 35.5 26.1 36 26.6 36.8 26.6 37.3 26.1L39.8 23.6 42.3 26.1C42.8 26.6 43.6 26.6 44.1 26.1 44.6 25.6 44.6 24.8 44.1 24.3L41.6 21.8 44.1 19.3C44.6 18.8 44.6 18 44.1 17.5 43.6 17 42.8 17 42.3 17.5L39.8 20ZM15.2 41.3C14.9 41.9 14.1 42.2 13.4 41.9 12.7 41.5 12.5 40.7 12.8 40.1 13.1 39.5 13.7 38.6 14.4 37.8 15.8 36.3 17.4 35.3 19.3 35.3 21.3 35.3 22.4 36.2 24 38.2 24 38.2 24.3 38.6 24.4 38.7 25.2 39.7 25.6 40 26 40 26.6 40 27.1 39.6 28.3 38.1 30.1 36.1 31 35.3 32.7 35.3 34.1 35.3 35.1 36 36.4 37.4 36.5 37.5 36.6 37.6 36.7 37.7 36.8 37.8 37 38 37.1 38.1 38.4 39.5 39.1 40 40 40 41 40 41.9 39.3 42.9 38.2 43.2 37.7 43.5 37.2 43.8 36.8 44 36.5 44.1 36.3 44.1 36.1 44.4 35.5 45.2 35.2 45.9 35.4 46.5 35.7 46.8 36.5 46.6 37.2 46.3 37.9 45.7 38.8 45 39.8 43.6 41.6 41.9 42.7 40 42.7 38.1 42.7 36.9 41.8 35.1 39.9 35 39.8 34.8 39.6 34.8 39.6 34.7 39.4 34.6 39.3 34.5 39.2 33.6 38.3 33.1 38 32.7 38 32.1 38 31.6 38.4 30.3 39.9 28.6 41.9 27.7 42.7 26 42.7 24.5 42.7 23.5 41.9 22.3 40.3 22.2 40.2 21.9 39.8 21.9 39.8 20.8 38.5 20.2 38 19.3 38 18.3 38 17.3 38.6 16.4 39.6 16.1 39.9 15.7 40.4 15.5 40.8 15.3 41 15.2 41.2 15.2 41.3Z"/><path d="M30 56.7C44.7 56.7 56.7 44.7 56.7 30 56.7 15.3 44.7 3.3 30 3.3 15.3 3.3 3.3 15.3 3.3 30 3.3 44.7 15.3 56.7 30 56.7ZM30 60C13.4 60 0 46.6 0 30 0 13.4 13.4 0 30 0 46.6 0 60 13.4 60 30 60 46.6 46.6 60 30 60Z"/></g>
</svg>