<?xml version="1.0" encoding="UTF-8" standalone="no"?>
<svg width="60px" height="60px" viewBox="0 0 60 60" version="1.1" xmlns="http://www.w3.org/2000/svg" xmlns:xlink="http://www.w3.org/1999/xlink">
    <!-- Generator: Sketch 42 (36781) - http://www.bohemiancoding.com/sketch -->
    <title>icon-mood-1</title>
    <desc>Created with Sketch.</desc>
    <defs></defs>
    <g id="symbols" stroke="none" stroke-width="1" fill="none" fill-rule="evenodd">
        <g id="icon-mood-1" fill-rule="nonzero" fill="#000000">
            <path d="M39.6666676,18.6666667 C41.3047682,18.6666667 42.6666667,20.0285397 42.6666667,21.6666679 C42.6666667,23.3047924 41.3047682,24.6666667 39.6666676,24.6666667 C38.0285677,24.6666667 36.6666667,23.3047924 36.6666667,21.6666679 C36.6666667,20.0285397 38.0285677,18.6666667 39.6666676,18.6666667 Z M20.3333343,18.6666667 C21.9714349,18.6666667 23.3333333,20.0285397 23.3333333,21.6666679 C23.3333333,23.3047924 21.9714349,24.6666667 20.3333343,24.6666667 C18.6952343,24.6666667 17.3333333,23.3047924 17.3333333,21.6666679 C17.3333333,20.0285397 18.6952343,18.6666667 20.3333343,18.6666667 Z M18.6347813,41.7078251 C18.0597654,42.426595 17.0109448,42.5431306 16.2921749,41.9681147 C15.573405,41.3930988 15.4568694,40.3442781 16.0318853,39.6255083 C16.4648578,39.0842926 17.2308298,38.3430294 18.3254997,37.6132495 C20.1460521,36.3995479 22.2714076,35.6666667 24.6666667,35.6666667 C26.3191052,35.6666667 27.7929573,36.1634094 29.6975044,37.1733965 C30.0791211,37.375769 30.1197382,37.3983284 31.1106352,37.9532307 C33.5671943,39.3289038 34.8166798,39.8148148 36.3703704,39.8148148 C38.4362604,39.8148148 40.7252389,38.7321898 43.5294696,36.1149079 C44.2023874,35.4868513 45.2570355,35.5232185 45.8850921,36.1961362 C46.5131487,36.869054 46.4767815,37.9237022 45.8038638,38.5517588 C39.650062,44.2953071 35.6136055,44.2953071 29.4819573,40.8615841 C28.5230681,40.3246061 28.4839699,40.3028904 28.135829,40.1182702 C26.6699492,39.3409097 25.6584589,39 24.6666667,39 C22.9785924,39 21.4789479,39.5171188 20.1745003,40.3867505 C19.7154284,40.6927985 19.3162223,41.0200166 18.9819524,41.3435036 C18.7928554,41.5265007 18.6757249,41.6566457 18.6347813,41.7078251 Z" id="Combined-Shape"></path>
            <path d="M30,56.6666667 C44.7275933,56.6666667 56.6666667,44.7275933 56.6666667,30 C56.6666667,15.2724067 44.7275933,3.33333333 30,3.33333333 C15.2724067,3.33333333 3.33333333,15.2724067 3.33333333,30 C3.33333333,44.7275933 15.2724067,56.6666667 30,56.6666667 Z M30,60 C13.4314575,60 0,46.5685425 0,30 C0,13.4314575 13.4314575,0 30,0 C46.5685425,0 60,13.4314575 60,30 C60,46.5685425 46.5685425,60 30,60 Z" id="Oval-2"></path>
        </g>
    </g>
</svg>