<?xml version="1.0" encoding="UTF-8" standalone="no"?>
<svg width="60px" height="60px" viewBox="0 0 60 60" version="1.1" xmlns="http://www.w3.org/2000/svg" xmlns:xlink="http://www.w3.org/1999/xlink">
    <!-- Generator: Sketch 42 (36781) - http://www.bohemiancoding.com/sketch -->
    <title>icon-mood-3</title>
    <desc>Created with Sketch.</desc>
    <defs></defs>
    <g id="symbols" stroke="none" stroke-width="1" fill="none" fill-rule="evenodd">
        <g id="icon-mood-3" fill-rule="nonzero" fill="#000000">
            <path d="M39.6666676,18.6666667 C41.3047682,18.6666667 42.6666667,20.0285397 42.6666667,21.6666679 C42.6666667,23.3047924 41.3047682,24.6666667 39.6666676,24.6666667 C38.0285677,24.6666667 36.6666667,23.3047924 36.6666667,21.6666679 C36.6666667,20.0285397 38.0285677,18.6666667 39.6666676,18.6666667 Z M20.3333343,18.6666667 C21.9714349,18.6666667 23.3333333,20.0285397 23.3333333,21.6666679 C23.3333333,23.3047924 21.9714349,24.6666667 20.3333343,24.6666667 C18.6952343,24.6666667 17.3333333,23.3047924 17.3333333,21.6666679 C17.3333333,20.0285397 18.6952343,18.6666667 20.3333343,18.6666667 Z M20.6666667,42 C19.7461921,42 19,41.2538079 19,40.3333333 C19,39.4128588 19.7461921,38.6666667 20.6666667,38.6666667 L39.330469,38.6666667 C40.2509436,38.6666667 40.9971357,39.4128588 40.9971357,40.3333333 C40.9971357,41.2538079 40.2509436,42 39.330469,42 L20.6666667,42 Z" id="Combined-Shape"></path>
            <path d="M30,56.6666667 C44.7275933,56.6666667 56.6666667,44.7275933 56.6666667,30 C56.6666667,15.2724067 44.7275933,3.33333333 30,3.33333333 C15.2724067,3.33333333 3.33333333,15.2724067 3.33333333,30 C3.33333333,44.7275933 15.2724067,56.6666667 30,56.6666667 Z M30,60 C13.4314575,60 0,46.5685425 0,30 C0,13.4314575 13.4314575,0 30,0 C46.5685425,0 60,13.4314575 60,30 C60,46.5685425 46.5685425,60 30,60 Z" id="Oval-2-Copy"></path>
        </g>
    </g>
</svg>